<mxfile host="65bd71144e">
    <diagram id="T2SGenoJDVw-8LUJ9btR" name="Page-1">
        <mxGraphModel dx="652" dy="725" grid="1" gridSize="10" guides="1" tooltips="1" connect="1" arrows="1" fold="1" page="1" pageScale="1" pageWidth="827" pageHeight="1169" math="0" shadow="0">
            <root>
                <mxCell id="0"/>
                <mxCell id="1" parent="0"/>
                <mxCell id="2" value="NextJS API" style="shape=umlLifeline;perimeter=lifelinePerimeter;whiteSpace=wrap;html=1;container=1;collapsible=0;recursiveResize=0;outlineConnect=0;" vertex="1" parent="1">
                    <mxGeometry x="230" y="210" width="100" height="300" as="geometry"/>
                </mxCell>
                <mxCell id="3" value="" style="html=1;points=[];perimeter=orthogonalPerimeter;" vertex="1" parent="2">
                    <mxGeometry x="40" y="100" width="20" height="150" as="geometry"/>
                </mxCell>
                <mxCell id="4" value="" style="html=1;points=[];perimeter=orthogonalPerimeter;" vertex="1" parent="2">
                    <mxGeometry x="50" y="130" width="20" height="40" as="geometry"/>
                </mxCell>
                <mxCell id="5" value="getuser" style="edgeStyle=orthogonalEdgeStyle;html=1;align=left;spacingLeft=2;endArrow=block;rounded=0;entryX=1;entryY=0;" edge="1" parent="2" target="4">
                    <mxGeometry relative="1" as="geometry">
                        <mxPoint x="60" y="110" as="sourcePoint"/>
                        <Array as="points">
                            <mxPoint x="90" y="110"/>
                            <mxPoint x="90" y="130"/>
                        </Array>
                    </mxGeometry>
                </mxCell>
                <mxCell id="6" value="" style="html=1;points=[];perimeter=orthogonalPerimeter;" vertex="1" parent="2">
                    <mxGeometry x="50" y="200" width="20" height="40" as="geometry"/>
                </mxCell>
                <mxCell id="7" value="addCredits" style="edgeStyle=orthogonalEdgeStyle;html=1;align=left;spacingLeft=2;endArrow=block;rounded=0;entryX=1;entryY=0;" edge="1" parent="2" target="6">
                    <mxGeometry relative="1" as="geometry">
                        <mxPoint x="60" y="180" as="sourcePoint"/>
                        <Array as="points">
                            <mxPoint x="90" y="180"/>
                            <mxPoint x="90" y="200"/>
                        </Array>
                    </mxGeometry>
                </mxCell>
                <mxCell id="8" value="DataBase" style="shape=umlLifeline;perimeter=lifelinePerimeter;whiteSpace=wrap;html=1;container=1;collapsible=0;recursiveResize=0;outlineConnect=0;lifelineDashed=0;" vertex="1" parent="1">
                    <mxGeometry x="399" y="210" width="100" height="300" as="geometry"/>
                </mxCell>
                <mxCell id="9" value="" style="html=1;points=[];perimeter=orthogonalPerimeter;" vertex="1" parent="8">
                    <mxGeometry x="41" y="140" width="18" height="30" as="geometry"/>
                </mxCell>
                <mxCell id="10" value="" style="html=1;points=[];perimeter=orthogonalPerimeter;" vertex="1" parent="8">
                    <mxGeometry x="42" y="210" width="17" height="30" as="geometry"/>
                </mxCell>
                <mxCell id="11" value="SQL : Update User" style="html=1;verticalAlign=bottom;endArrow=block;entryX=0;entryY=0;exitX=0.98;exitY=0.256;exitDx=0;exitDy=0;exitPerimeter=0;edgeStyle=orthogonalEdgeStyle;" edge="1" parent="8">
                    <mxGeometry x="0.1311" relative="1" as="geometry">
                        <mxPoint x="-98.40000000000009" y="219.24" as="sourcePoint"/>
                        <Array as="points">
                            <mxPoint x="-28" y="219"/>
                            <mxPoint x="41" y="219"/>
                        </Array>
                        <mxPoint x="42" y="219" as="targetPoint"/>
                        <mxPoint as="offset"/>
                    </mxGeometry>
                </mxCell>
                <mxCell id="12" value="Purchase Credits&lt;br&gt;Page" style="shape=umlLifeline;perimeter=lifelinePerimeter;whiteSpace=wrap;html=1;container=1;collapsible=0;recursiveResize=0;outlineConnect=0;" vertex="1" parent="1">
                    <mxGeometry x="110" y="210" width="100" height="300" as="geometry"/>
                </mxCell>
                <mxCell id="13" value="" style="html=1;points=[];perimeter=orthogonalPerimeter;" vertex="1" parent="12">
                    <mxGeometry x="40" y="80" width="20" height="190" as="geometry"/>
                </mxCell>
                <mxCell id="14" value="return User" style="html=1;verticalAlign=bottom;endArrow=open;dashed=1;endSize=8;exitX=0;exitY=0.896;entryX=1.034;entryY=0.915;entryDx=0;entryDy=0;entryPerimeter=0;edgeStyle=orthogonalEdgeStyle;rounded=0;exitDx=0;exitDy=0;exitPerimeter=0;" edge="1" parent="1" source="9" target="4">
                    <mxGeometry x="-0.0258" relative="1" as="geometry">
                        <mxPoint x="360" y="416" as="targetPoint"/>
                        <Array as="points">
                            <mxPoint x="301" y="377"/>
                        </Array>
                        <mxPoint as="offset"/>
                    </mxGeometry>
                </mxCell>
                <mxCell id="15" value="SQL : Select User" style="html=1;verticalAlign=bottom;endArrow=block;entryX=0;entryY=0;exitX=0.98;exitY=0.256;exitDx=0;exitDy=0;exitPerimeter=0;edgeStyle=orthogonalEdgeStyle;" edge="1" parent="1" source="4" target="9">
                    <mxGeometry x="0.2878" relative="1" as="geometry">
                        <mxPoint x="360" y="340" as="sourcePoint"/>
                        <Array as="points">
                            <mxPoint x="370" y="350"/>
                            <mxPoint x="439" y="350"/>
                        </Array>
                        <mxPoint as="offset"/>
                    </mxGeometry>
                </mxCell>
                <mxCell id="16" value="redirect to account" style="html=1;verticalAlign=bottom;endArrow=open;dashed=1;endSize=8;exitX=0;exitY=0.95;entryX=1.099;entryY=0.851;entryDx=0;entryDy=0;entryPerimeter=0;edgeStyle=orthogonalEdgeStyle;" edge="1" parent="1" source="3" target="13">
                    <mxGeometry x="0.0283" y="-2" relative="1" as="geometry">
                        <mxPoint x="200" y="386" as="targetPoint"/>
                        <mxPoint as="offset"/>
                    </mxGeometry>
                </mxCell>
                <mxCell id="17" value="REST : addcredit" style="html=1;verticalAlign=bottom;endArrow=block;entryX=0;entryY=0;exitX=0.99;exitY=0.109;exitDx=0;exitDy=0;exitPerimeter=0;" edge="1" parent="1" source="13" target="3">
                    <mxGeometry relative="1" as="geometry">
                        <mxPoint x="200" y="310" as="sourcePoint"/>
                    </mxGeometry>
                </mxCell>
                <mxCell id="18" value="" style="shape=umlLifeline;participant=umlActor;perimeter=lifelinePerimeter;whiteSpace=wrap;html=1;container=1;collapsible=0;recursiveResize=0;verticalAlign=top;spacingTop=36;outlineConnect=0;" vertex="1" parent="1">
                    <mxGeometry x="30" y="200" width="20" height="300" as="geometry"/>
                </mxCell>
                <mxCell id="19" value="Click on button&lt;br&gt;to add credits" style="html=1;verticalAlign=bottom;endArrow=block;entryX=0;entryY=0;" edge="1" parent="1" source="18" target="13">
                    <mxGeometry relative="1" as="geometry">
                        <mxPoint x="80" y="290" as="sourcePoint"/>
                    </mxGeometry>
                </mxCell>
                <mxCell id="20" value="credits &lt;br&gt;successfully added" style="html=1;verticalAlign=bottom;endArrow=open;dashed=1;endSize=8;exitX=0;exitY=0.95;" edge="1" parent="1" source="13" target="18">
                    <mxGeometry x="-0.0905" relative="1" as="geometry">
                        <mxPoint x="70" y="470" as="targetPoint"/>
                        <mxPoint as="offset"/>
                    </mxGeometry>
                </mxCell>
            </root>
        </mxGraphModel>
    </diagram>
</mxfile>